<?xml version="1.0" encoding="UTF-8" standalone="no"?><svg xmlns="http://www.w3.org/2000/svg" xmlns:xlink="http://www.w3.org/1999/xlink" contentScriptType="application/ecmascript" contentStyleType="text/css" height="228px" preserveAspectRatio="none" style="width:211px;height:228px;background:#FFFFFF;" version="1.1" viewBox="0 0 211 228" width="211px" zoomAndPan="magnify"><defs><filter height="300%" id="f11orkp7pt6u1z" width="300%" x="-1" y="-1"><feGaussianBlur result="blurOut" stdDeviation="2.0"/><feColorMatrix in="blurOut" result="blurOut2" type="matrix" values="0 0 0 0 0 0 0 0 0 0 0 0 0 0 0 0 0 0 .4 0"/><feOffset dx="4.0" dy="4.0" in="blurOut2" result="blurOut3"/><feBlend in="SourceGraphic" in2="blurOut3" mode="normal"/></filter></defs><g><!--MD5=[44e3be5e93100f87f3b6fc2e9bda0b10]
class e01--><rect codeLine="1" fill="#FEFECE" filter="url(#f11orkp7pt6u1z)" height="73.6094" id="e01" style="stroke:#A80036;stroke-width:1.5;" width="190" x="7" y="7"/><ellipse cx="74.25" cy="23" fill="#ADD1B2" rx="11" ry="11" style="stroke:#A80036;stroke-width:1.0;"/><path d="M73.0469,23.875 L74.5,23.875 L74.5,23.9844 C74.5,24.3906 74.5313,24.5469 74.6094,24.7031 C74.7656,24.9531 75.0469,25.1094 75.3438,25.1094 C75.5938,25.1094 75.8594,24.9688 76.0156,24.75 C76.1406,24.5938 76.1719,24.4375 76.1719,23.9844 L76.1719,22.0625 C76.1719,21.9063 76.1719,21.8594 76.1563,21.7031 C76.0938,21.2344 75.7813,20.9219 75.3281,20.9219 C75.0781,20.9219 74.8125,21.0625 74.6406,21.2813 C74.5313,21.4531 74.5,21.6094 74.5,22.0625 L74.5,22.1875 L73.0469,22.1875 L73.0469,19.7813 L77.0313,19.7813 L77.0313,20.6406 C77.0313,21.0469 77.0625,21.2188 77.1406,21.375 C77.3125,21.625 77.5938,21.7813 77.875,21.7813 C78.1406,21.7813 78.4063,21.6406 78.5781,21.4219 C78.6875,21.25 78.7188,21.1094 78.7188,20.6406 L78.7188,18.0938 L71.0938,18.0938 C70.6563,18.0938 70.5313,18.1094 70.375,18.2031 C70.125,18.3594 69.9688,18.6563 69.9688,18.9375 C69.9688,19.2188 70.1094,19.4688 70.3281,19.6406 C70.4844,19.75 70.6719,19.7813 71.0938,19.7813 L71.3438,19.7813 L71.3438,26.2969 L71.0938,26.2969 C70.6875,26.2969 70.5313,26.3125 70.375,26.4219 C70.125,26.5938 69.9688,26.8594 69.9688,27.1563 C69.9688,27.4219 70.1094,27.6719 70.3281,27.8281 C70.4688,27.9531 70.7031,28 71.0938,28 L79.0938,28 L79.0938,25.4219 C79.0938,24.9844 79.0625,24.8438 78.9844,24.6875 C78.8125,24.4375 78.5313,24.2813 78.25,24.2813 C77.9844,24.2813 77.7188,24.3906 77.5469,24.6406 C77.4375,24.7969 77.4063,24.9375 77.4063,25.4219 L77.4063,26.2969 L73.0469,26.2969 L73.0469,23.875 Z " fill="#000000"/><text fill="#000000" font-family="sans-serif" font-size="12" lengthAdjust="spacing" textLength="47" x="94.75" y="27.1543">Entity01</text><line style="stroke:#A80036;stroke-width:1.5;" x1="8" x2="196" y1="39" y2="39"/><ellipse cx="18" cy="50" fill="#000000" rx="3" ry="3" style="stroke:#000000;stroke-width:1.0;"/><text fill="#000000" font-family="sans-serif" font-size="11" lengthAdjust="spacing" textLength="164" x="27" y="53.2104">e1_id : number «generated»</text><line style="stroke:#A80036;stroke-width:1.0;" x1="8" x2="196" y1="59.8047" y2="59.8047"/><ellipse cx="18" cy="70.8047" fill="#000000" rx="3" ry="3" style="stroke:#000000;stroke-width:1.0;"/><text fill="#000000" font-family="sans-serif" font-size="11" lengthAdjust="spacing" textLength="67" x="27" y="74.0151">name : text</text><!--MD5=[a7e3466bc31fc7f02d93123623092e97]
class e02--><rect codeLine="6" fill="#FEFECE" filter="url(#f11orkp7pt6u1z)" height="73.6094" id="e02" style="stroke:#A80036;stroke-width:1.5;" width="190" x="7" y="141"/><ellipse cx="73.75" cy="157" fill="#ADD1B2" rx="11" ry="11" style="stroke:#A80036;stroke-width:1.0;"/><path d="M72.5469,157.875 L74,157.875 L74,157.9844 C74,158.3906 74.0313,158.5469 74.1094,158.7031 C74.2656,158.9531 74.5469,159.1094 74.8438,159.1094 C75.0938,159.1094 75.3594,158.9688 75.5156,158.75 C75.6406,158.5938 75.6719,158.4375 75.6719,157.9844 L75.6719,156.0625 C75.6719,155.9063 75.6719,155.8594 75.6563,155.7031 C75.5938,155.2344 75.2813,154.9219 74.8281,154.9219 C74.5781,154.9219 74.3125,155.0625 74.1406,155.2813 C74.0313,155.4531 74,155.6094 74,156.0625 L74,156.1875 L72.5469,156.1875 L72.5469,153.7813 L76.5313,153.7813 L76.5313,154.6406 C76.5313,155.0469 76.5625,155.2188 76.6406,155.375 C76.8125,155.625 77.0938,155.7813 77.375,155.7813 C77.6406,155.7813 77.9063,155.6406 78.0781,155.4219 C78.1875,155.25 78.2188,155.1094 78.2188,154.6406 L78.2188,152.0938 L70.5938,152.0938 C70.1563,152.0938 70.0313,152.1094 69.875,152.2031 C69.625,152.3594 69.4688,152.6563 69.4688,152.9375 C69.4688,153.2188 69.6094,153.4688 69.8281,153.6406 C69.9844,153.75 70.1719,153.7813 70.5938,153.7813 L70.8438,153.7813 L70.8438,160.2969 L70.5938,160.2969 C70.1875,160.2969 70.0313,160.3125 69.875,160.4219 C69.625,160.5938 69.4688,160.8594 69.4688,161.1563 C69.4688,161.4219 69.6094,161.6719 69.8281,161.8281 C69.9688,161.9531 70.2031,162 70.5938,162 L78.5938,162 L78.5938,159.4219 C78.5938,158.9844 78.5625,158.8438 78.4844,158.6875 C78.3125,158.4375 78.0313,158.2813 77.75,158.2813 C77.4844,158.2813 77.2188,158.3906 77.0469,158.6406 C76.9375,158.7969 76.9063,158.9375 76.9063,159.4219 L76.9063,160.2969 L72.5469,160.2969 L72.5469,157.875 Z " fill="#000000"/><text fill="#000000" font-family="sans-serif" font-size="12" lengthAdjust="spacing" textLength="48" x="94.25" y="161.1543">Entity02</text><line style="stroke:#A80036;stroke-width:1.5;" x1="8" x2="196" y1="173" y2="173"/><ellipse cx="18" cy="184" fill="#000000" rx="3" ry="3" style="stroke:#000000;stroke-width:1.0;"/><text fill="#000000" font-family="sans-serif" font-size="11" lengthAdjust="spacing" textLength="164" x="27" y="187.2104">e2_id : number «generated»</text><line style="stroke:#A80036;stroke-width:1.0;" x1="8" x2="196" y1="193.8047" y2="193.8047"/><ellipse cx="18" cy="204.8047" fill="#000000" rx="3" ry="3" style="stroke:#000000;stroke-width:1.0;"/><text fill="#000000" font-family="sans-serif" font-size="11" lengthAdjust="spacing" textLength="117" x="27" y="208.0151">e1_id : number «FK»</text><!--MD5=[a68fd74e026c2ef059eea4f9e7250427]
link e01 to e02--><path codeLine="11" d="M102,89.144 C102,103.225 102,118.8014 102,132.8803 " fill="none" id="e01-e02" style="stroke:#A80036;stroke-width:1.0;stroke-dasharray:7.0,7.0;"/><line style="stroke:#A80036;stroke-width:1.0;" x1="102" x2="108" y1="132.974" y2="140.974"/><line style="stroke:#A80036;stroke-width:1.0;" x1="102" x2="96" y1="132.974" y2="140.974"/><line style="stroke:#A80036;stroke-width:1.0;" x1="102" x2="102" y1="132.974" y2="140.974"/><ellipse cx="102" cy="126.974" rx="4" ry="4" style="stroke:#A80036;stroke-width:1.0;fill:none;"/><line style="stroke:#A80036;stroke-width:1.0;fill:none;" x1="98" x2="106" y1="85.07" y2="85.07"/><line style="stroke:#A80036;stroke-width:1.0;fill:none;" x1="98" x2="106" y1="88.07" y2="88.07"/><line style="stroke:#A80036;stroke-width:1.0;fill:none;" x1="102" x2="102" y1="89.07" y2="81.07"/><!--MD5=[60bc68484b86cf58f43925641c457004]
@startuml
entity "Entity01" as e01 {
  *e1_id : number <<generated>>
  - -
  *name : text
}
entity "Entity02" as e02 {
  *e2_id : number <<generated>>
  - -
  *e1_id : number <<FK>>
}
e01 ||..o{ e02
@enduml

PlantUML version 1.2021.9beta2(Unknown compile time)
(GPL source distribution)
Java Runtime: Java(TM) SE Runtime Environment
JVM: Java HotSpot(TM) 64-Bit Server VM
Default Encoding: UTF-8
Language: en
Country: US
--></g></svg>