<?xml version="1.0" encoding="UTF-8" standalone="no"?><svg xmlns="http://www.w3.org/2000/svg" xmlns:xlink="http://www.w3.org/1999/xlink" contentScriptType="application/ecmascript" contentStyleType="text/css" height="103px" preserveAspectRatio="none" style="width:241px;height:103px;background:#FFFFFF;" version="1.1" viewBox="0 0 241 103" width="241px" zoomAndPan="magnify"><defs/><g><rect fill="#FEFECE" height="81.1875" rx="5" ry="5" style="stroke:#FEFECE;stroke-width:1.5;" width="99" x="10" y="10"/><text fill="#000000" font-family="sans-serif" font-size="14" lengthAdjust="spacing" textLength="31" x="15" y="24.9951">fruit</text><text fill="#000000" font-family="sans-serif" font-size="14" lengthAdjust="spacing" textLength="43" x="61" y="24.9951">Apple</text><line style="stroke:#A80036;stroke-width:1.0;" x1="56" x2="56" y1="10" y2="30.2969"/><line style="stroke:#A80036;stroke-width:1.0;" x1="10" x2="109" y1="30.2969" y2="30.2969"/><text fill="#000000" font-family="sans-serif" font-size="14" lengthAdjust="spacing" textLength="28" x="15" y="45.292">size</text><text fill="#000000" font-family="sans-serif" font-size="14" lengthAdjust="spacing" textLength="40" x="61" y="45.292">Large</text><line style="stroke:#A80036;stroke-width:1.0;" x1="56" x2="56" y1="30.2969" y2="50.5938"/><line style="stroke:#A80036;stroke-width:1.0;" x1="10" x2="109" y1="50.5938" y2="50.5938"/><text fill="#000000" font-family="sans-serif" font-size="14" lengthAdjust="spacing" textLength="36" x="15" y="65.5889">color</text><text fill="#000000" font-family="sans-serif" font-size="14" lengthAdjust="spacing" textLength="28" x="61" y="65.5889">Red</text><line style="stroke:#A80036;stroke-width:1.0;" x1="56" x2="56" y1="50.5938" y2="70.8906"/><line style="stroke:#A80036;stroke-width:1.0;" x1="10" x2="109" y1="70.8906" y2="70.8906"/><text fill="#000000" font-family="sans-serif" font-size="14" lengthAdjust="spacing" textLength="32" x="15" y="85.8857">nest</text><text fill="#000000" font-family="sans-serif" font-size="14" lengthAdjust="spacing" textLength="0" x="73" y="85.8857"/><line style="stroke:#A80036;stroke-width:1.0;" x1="56" x2="56" y1="70.8906" y2="91.1875"/><rect fill="none" height="81.1875" rx="5" ry="5" style="stroke:#A80036;stroke-width:1.5;" width="99" x="10" y="10"/><rect fill="#FEFECE" height="20.2969" rx="5" ry="5" style="stroke:#FEFECE;stroke-width:1.5;" width="83" x="146" y="70.5"/><text fill="#000000" font-family="sans-serif" font-size="14" lengthAdjust="spacing" textLength="26" x="151" y="85.4951">key</text><text fill="#000000" font-family="sans-serif" font-size="14" lengthAdjust="spacing" textLength="37" x="187" y="85.4951">value</text><line style="stroke:#A80036;stroke-width:1.0;" x1="182" x2="182" y1="70.5" y2="90.7969"/><rect fill="none" height="20.2969" rx="5" ry="5" style="stroke:#A80036;stroke-width:1.5;" width="83" x="146" y="70.5"/><path d="M97,80.5 L110,80.5 C119.2824,80.5 129.1943,80.5 138.7113,80.5 " fill="none" style="stroke:#A80036;stroke-width:1.0;stroke-dasharray:3.0,3.0;"/><path d="M138.7113,83.5113 L140.9697,80.5 L138.7113,77.4887 L146.2394,80.5 L138.7113,83.5113 " fill="#A80036" style="stroke:#A80036;stroke-width:1.0;"/><ellipse cx="97" cy="80.5" fill="#A80036" rx="3" ry="3" style="stroke:#A80036;stroke-width:1.0;stroke-dasharray:3.0,3.0;"/><!--MD5=[f5c7539d36a04c12af9947fbdc11f107]
@startjson
{
   "fruit":"Apple",
   "size":"Large",
   "color":"Red",
   "nest": {
      "key": "value"
   }
}
@endjson

PlantUML version 1.2021.9beta2(Unknown compile time)
(GPL source distribution)
Java Runtime: Java(TM) SE Runtime Environment
JVM: Java HotSpot(TM) 64-Bit Server VM
Default Encoding: UTF-8
Language: en
Country: US
--></g></svg>